<?xml version="1.0" standalone="no"?>
<!DOCTYPE svg PUBLIC "-//W3C//DTD SVG 20010904//EN"
 "http://www.w3.org/TR/2001/REC-SVG-20010904/DTD/svg10.dtd">
<svg version="1.0" xmlns="http://www.w3.org/2000/svg"
 width="1200.000000pt" height="1351.000000pt" viewBox="0 0 1200.000000 1351.000000"
 preserveAspectRatio="xMidYMid meet">

<g transform="translate(0.000000,1351.000000) scale(0.100000,-0.100000)"
fill="#000000" stroke="none">
<path d="M4460 12070 c-617 -58 -1291 -273 -1745 -559 -371 -232 -629 -505
-794 -836 -126 -251 -178 -449 -188 -713 l-6 -152 -66 -47 c-237 -169 -406
-451 -457 -761 -21 -129 -14 -366 16 -507 63 -295 217 -611 430 -880 178 -224
343 -392 1138 -1155 305 -293 388 -377 377 -385 -8 -5 -42 -26 -76 -45 -34
-19 -89 -64 -123 -99 -33 -35 -77 -78 -96 -95 -113 -101 -173 -172 -215 -261
-72 -148 -90 -286 -60 -456 37 -212 119 -377 341 -680 221 -303 295 -432 363
-636 57 -172 71 -266 81 -548 13 -340 32 -461 92 -579 17 -33 20 -63 23 -180
4 -229 43 -349 148 -457 114 -116 254 -182 497 -235 205 -45 316 -71 550 -132
458 -118 646 -101 1520 138 642 175 1071 327 1405 498 392 200 585 450 585
757 0 200 -65 321 -294 543 -64 63 -116 115 -116 116 0 2 14 21 31 42 44 56
87 144 104 215 7 34 18 65 22 69 36 32 286 228 405 317 l147 110 85 6 c312 22
577 256 642 568 7 36 25 90 38 121 29 65 56 188 56 253 0 42 4 51 44 90 86 84
127 172 128 275 0 86 -31 165 -87 228 l-45 49 108 179 c334 553 689 1047 1113
1549 192 227 328 376 588 644 136 140 240 255 245 271 19 62 -18 112 -194 264
-676 587 -1586 907 -2861 1007 -192 15 -206 12 -269 -59 -333 -371 -714 -1058
-956 -1724 -116 -318 -217 -672 -263 -928 -33 -176 -25 -160 -74 -160 -24 0
-69 -7 -100 -15 -32 -8 -61 -15 -64 -15 -16 0 37 274 122 637 110 465 140 666
134 906 -4 124 -3 134 13 126 25 -14 75 -11 108 6 72 37 188 328 226 565 22
140 15 425 -14 555 -69 303 -216 559 -438 759 -47 43 -63 64 -69 93 -14 77
-69 222 -126 333 -249 486 -732 836 -1329 964 -208 45 -582 66 -800 46z m4016
-2280 c1080 -100 1849 -356 2469 -823 80 -60 112 -87 214 -179 l53 -49 -183
-187 c-790 -805 -1479 -1739 -2007 -2722 -42 -77 -62 -103 -108 -139 -52 -40
-57 -42 -50 -20 45 153 44 241 -3 306 -54 75 -134 91 -206 42 -50 -35 -76 -81
-107 -197 -35 -130 -49 -154 -182 -320 -125 -157 -166 -236 -175 -338 l-6 -72
-175 58 c-268 89 -548 213 -785 348 -147 84 -463 296 -538 362 -5 4 -1 22 7
39 15 28 21 31 64 31 152 0 275 120 276 270 1 36 -2 79 -7 95 -8 30 -7 30 97
82 l105 52 37 -52 c169 -237 399 -384 673 -432 152 -27 407 -13 556 30 368
107 638 386 737 760 29 113 36 320 14 439 -20 106 -62 224 -112 315 l-36 66
28 -25 c16 -13 61 -56 101 -94 49 -47 76 -67 87 -63 30 12 28 35 -5 76 -42 53
-201 191 -298 260 -42 30 -110 79 -151 110 -220 162 -449 232 -715 217 -167
-10 -244 -23 -359 -61 l-100 -33 -39 20 c-53 26 -213 88 -229 88 -7 0 -33 -44
-57 -96 -51 -109 -52 -102 34 -146 22 -11 41 -22 43 -23 2 -2 -27 -34 -63 -71
-125 -128 -217 -292 -267 -477 -20 -71 -23 -107 -23 -269 0 -177 -1 -188 -20
-196 -18 -8 -22 -2 -42 57 -28 85 -28 105 2 291 123 754 470 1635 900 2285
137 208 293 405 320 405 6 0 110 -9 231 -20z m-1851 -781 c37 -13 40 -17 51
-74 25 -121 37 -290 31 -435 -8 -184 -39 -366 -126 -739 -90 -385 -114 -512
-146 -766 -55 -449 -66 -532 -91 -647 -89 -423 -286 -675 -593 -761 -66 -18
-103 -21 -286 -21 -225 -1 -325 12 -563 70 -92 22 -460 139 -470 148 -4 5 40
91 67 131 28 40 27 72 -1 81 -16 5 -27 1 -40 -16 -33 -41 -92 -152 -129 -245
l-36 -90 -64 -13 c-177 -34 -435 -25 -624 23 -100 25 -255 82 -255 94 0 4 11
39 24 78 13 39 30 97 37 128 l13 57 50 -6 c235 -29 616 -36 841 -16 139 12
352 40 376 49 9 3 48 53 87 111 110 163 234 312 385 464 l138 138 38 -63 c71
-118 175 -199 254 -199 65 0 137 65 137 123 0 25 -35 90 -91 170 -90 128 -102
233 -40 354 38 77 59 90 94 63 14 -12 29 -29 32 -40 4 -11 16 -25 27 -31 28
-15 53 10 44 45 -9 35 -76 103 -111 112 -90 22 -195 -140 -195 -303 0 -81 22
-139 97 -249 75 -109 81 -126 54 -153 -77 -77 -245 82 -296 279 -23 88 -16
243 14 320 65 168 195 259 322 226 124 -33 209 -205 149 -304 -26 -42 -57 -54
-104 -40 -31 10 -39 9 -54 -5 -23 -24 -6 -48 44 -65 152 -51 259 144 174 315
-28 56 -98 134 -130 145 -8 2 11 33 55 88 164 204 260 400 300 615 13 68 16
124 12 230 -6 170 -28 259 -97 400 -57 115 -61 104 50 159 70 36 141 61 211
76 61 13 285 5 334 -11z m1645 -1060 c100 -15 251 -71 342 -125 106 -63 257
-212 321 -315 240 -388 194 -875 -116 -1205 -398 -426 -1086 -399 -1450 57
-186 231 -258 534 -198 824 92 445 486 771 936 774 55 1 129 -4 165 -10z m662
-294 c62 -64 155 -211 189 -299 54 -139 72 -250 66 -406 -9 -206 -58 -359
-167 -520 -57 -84 -79 -95 -27 -14 87 134 138 281 158 459 33 283 -67 588
-267 815 -50 57 -21 36 48 -35z m-2043 -751 c35 -21 68 -76 76 -130 l7 -39
-76 -37 c-42 -21 -76 -34 -76 -30 1 4 7 18 14 32 28 50 -27 85 -58 38 -45 -69
-96 -260 -96 -362 0 -101 69 -186 151 -186 43 0 73 23 64 51 -4 13 2 22 24 33
34 18 38 15 47 -40 8 -55 -10 -113 -51 -161 -55 -65 -90 -74 -283 -72 -187 2
-200 -1 -308 -71 -33 -22 -63 -40 -65 -40 -3 0 14 39 38 87 23 47 52 120 65
161 20 65 27 76 59 92 75 39 134 134 149 239 10 74 -4 190 -29 238 l-19 39 31
40 c101 128 238 176 336 118z m-394 -367 c0 -120 -14 -167 -66 -212 l-22 -20
6 25 c4 14 16 86 28 160 29 191 28 185 42 171 8 -8 12 -51 12 -124z m2455
-201 c0 -2 -8 -10 -17 -17 -16 -13 -17 -12 -4 4 13 16 21 21 21 13z m-168
-376 c37 -28 52 -72 45 -133 -7 -68 -68 -257 -124 -381 -24 -54 -43 -106 -41
-115 2 -9 15 -17 29 -19 23 -3 29 5 62 75 20 43 41 90 46 105 6 17 75 79 182
165 95 76 174 143 177 150 2 6 -6 21 -17 32 l-21 21 25 50 c14 28 31 50 39 50
25 0 93 -58 109 -93 9 -19 17 -54 17 -76 0 -84 -55 -151 -200 -243 -149 -95
-188 -142 -140 -168 16 -9 26 -5 57 23 21 18 52 43 70 56 l32 22 7 -26 c10
-41 -13 -160 -42 -218 -15 -28 -34 -90 -44 -138 -54 -264 -268 -438 -537 -439
l-71 0 -199 -149 c-109 -82 -245 -188 -303 -234 -58 -47 -106 -84 -108 -82 -2
2 -9 29 -17 62 -26 110 -70 219 -126 310 l-20 33 68 44 c103 66 281 170 438
253 77 42 142 77 144 79 2 2 -3 12 -12 22 -28 31 -47 89 -47 144 1 95 47 179
204 371 82 101 120 172 150 284 29 110 48 148 84 167 37 20 55 20 84 -4z
m-5457 -52 c-4 -18 -20 -68 -35 -110 l-28 -78 30 -21 c74 -53 314 -127 486
-150 146 -19 381 -6 540 30 236 55 260 44 306 -132 l18 -67 -27 -23 c-129
-104 -333 -199 -515 -238 -138 -30 -373 -32 -500 -6 -360 76 -610 272 -610
478 0 124 113 260 268 325 74 30 75 30 67 -8z m3180 -126 c33 -39 222 -181
383 -287 l133 -88 -55 -22 c-80 -33 -130 -64 -251 -159 -61 -48 -142 -103
-181 -123 l-71 -37 -33 28 c-90 75 -154 89 -550 116 l-315 22 -120 53 c-66 30
-160 68 -210 85 -49 17 -76 29 -60 25 17 -3 118 -8 226 -12 386 -11 574 50
799 262 33 31 71 56 95 63 22 6 69 32 105 56 36 25 69 45 73 45 5 1 19 -12 32
-27z m-3546 -349 c58 -122 215 -247 406 -322 404 -158 868 -102 1230 146 l79
55 76 -11 c416 -62 709 -191 1155 -511 439 -314 690 -460 917 -535 115 -38
143 -39 154 -10 9 22 -13 44 -52 51 -49 9 -49 18 1 42 l44 21 60 -40 c72 -48
141 -122 170 -183 30 -64 44 -168 34 -246 l-8 -65 -80 -57 c-160 -116 -337
-188 -457 -188 -89 0 -188 28 -812 230 -340 111 -628 200 -640 198 -24 -3 -34
-39 -14 -55 7 -6 134 -49 282 -97 149 -48 271 -88 272 -89 8 -8 194 -419 204
-451 18 -55 8 -134 -25 -202 -20 -42 -58 -88 -129 -159 -283 -281 -694 -448
-1261 -511 -191 -21 -415 -15 -525 15 -181 49 -343 167 -403 293 -48 102 -58
160 -68 398 -19 476 -54 644 -189 928 -68 141 -122 227 -278 439 -136 185
-188 264 -239 368 -140 280 -135 531 14 705 l38 44 7 -67 c4 -43 18 -92 37
-134z m4921 -430 c64 -22 65 -26 18 -53 -24 -13 -94 -54 -156 -92 -62 -37
-115 -68 -117 -68 -12 0 -2 22 29 69 37 55 61 143 50 185 l-6 26 68 -26 c38
-15 89 -33 114 -41z m-415 -330 c101 -32 199 -166 261 -353 23 -71 28 -103 28
-195 1 -99 -2 -116 -26 -168 -52 -110 -162 -203 -362 -306 -112 -57 -159 -64
-213 -31 -42 25 -41 39 5 70 39 27 62 38 50 25 -12 -13 11 -45 32 -45 25 0 35
21 48 100 42 258 9 395 -128 530 -67 65 -228 170 -262 170 -24 0 -34 -28 -19
-52 14 -23 16 -21 -26 -42 -44 -22 -53 -20 -53 13 0 41 27 70 127 138 243 164
371 199 538 146z m-1156 -1192 c107 -34 196 -63 198 -65 2 -1 -75 -19 -172
-38 l-174 -35 -17 51 c-9 28 -27 72 -40 98 -13 26 -24 50 -24 54 0 8 -8 10
229 -65z"/>
<path d="M8314 9554 c-33 -38 -86 -101 -117 -141 -126 -159 -320 -484 -300
-503 4 -4 123 -51 263 -105 140 -53 618 -238 1061 -411 443 -173 811 -314 816
-314 16 0 467 631 457 639 -5 3 -61 45 -124 92 -244 183 -490 332 -785 475
-436 210 -784 317 -1075 331 l-135 6 -61 -69z"/>
<path d="M7845 8680 c-26 -40 -49 -78 -51 -85 -3 -6 34 -27 92 -50 125 -51
284 -140 390 -221 47 -35 89 -64 94 -64 6 0 66 100 127 212 5 9 -168 110 -270
158 -93 43 -263 108 -307 116 -27 6 -32 1 -75 -66z"/>
<path d="M7747 8483 c-4 -3 -7 -16 -7 -28 0 -18 16 -28 98 -59 120 -47 268
-129 372 -207 78 -59 101 -65 115 -31 17 45 -268 231 -465 302 -83 31 -102 35
-113 23z"/>
<path d="M7686 8344 c-9 -8 -16 -20 -16 -24 0 -15 41 -37 89 -50 62 -16 223
-87 304 -133 76 -43 101 -44 105 -6 3 22 -6 30 -70 66 -96 55 -186 95 -299
132 -51 17 -94 31 -95 31 -1 0 -10 -7 -18 -16z"/>
<path d="M8853 8167 l-51 -104 91 -37 c183 -74 372 -196 517 -332 l72 -69 24
30 c13 17 40 60 59 96 l35 67 -108 104 c-111 107 -245 204 -361 262 -79 40
-194 86 -213 86 -7 0 -37 -47 -65 -103z"/>
<path d="M8803 7933 c-7 -2 -13 -15 -13 -28 0 -19 17 -34 83 -74 124 -75 241
-165 354 -274 78 -76 107 -98 125 -95 13 2 24 11 26 22 5 25 -158 185 -289
283 -86 65 -257 174 -269 172 -3 0 -11 -3 -17 -6z"/>
<path d="M7992 7889 c-345 -61 -614 -324 -704 -685 -31 -125 -31 -323 0 -447
45 -180 137 -342 259 -458 171 -161 346 -233 568 -233 222 0 391 68 557 223
96 90 155 171 209 285 67 143 82 217 83 401 1 138 -2 172 -22 245 -48 174
-134 322 -258 441 -115 109 -235 178 -374 213 -80 20 -246 28 -318 15z m303
-82 c137 -39 257 -108 357 -207 58 -58 138 -173 164 -236 l15 -36 -53 30 c-29
16 -83 46 -120 66 l-66 37 -48 -88 c-26 -48 -57 -107 -70 -130 -13 -23 -24
-48 -23 -55 0 -18 234 -205 393 -316 45 -31 47 -34 40 -70 -4 -20 -8 -39 -10
-41 -5 -6 -220 138 -316 211 -42 32 -80 58 -85 58 -4 0 -30 -31 -56 -70 l-48
-69 43 -32 c24 -17 122 -87 220 -156 114 -82 174 -131 171 -140 -3 -7 -10 -13
-15 -13 -6 0 -105 59 -220 130 -114 72 -212 130 -217 130 -5 0 -11 -12 -14
-27 -3 -16 -17 -45 -31 -66 -14 -21 -26 -42 -26 -47 0 -4 87 -61 193 -125 105
-65 199 -124 207 -131 12 -12 7 -21 -38 -63 -111 -108 -214 -154 -372 -167
-199 -17 -432 74 -582 227 -149 152 -232 342 -245 558 -7 115 -10 112 57 61
19 -15 59 -43 89 -63 l53 -37 18 23 c9 12 29 45 43 72 l25 51 -128 103 -128
103 10 31 c6 18 12 33 13 35 1 1 60 -25 131 -59 71 -33 144 -67 162 -74 l32
-14 35 69 c19 38 35 71 35 74 0 2 -33 23 -72 46 -83 49 -190 123 -207 144 -9
10 -7 19 7 36 l18 22 209 -116 c116 -64 213 -116 216 -116 13 0 181 293 172
299 -6 3 -63 40 -129 81 -114 72 -117 75 -89 82 44 10 222 1 280 -15z m-880
-476 c-26 -75 -45 -201 -45 -305 1 -352 185 -666 483 -823 98 -51 83 -56 -25
-9 -356 155 -556 559 -476 966 11 59 68 224 74 217 2 -2 -2 -23 -11 -46z"/>
</g>
</svg>
